<?xml version="1.0" encoding="utf-8"?>
<!DOCTYPE svg PUBLIC "-//W3C//DTD SVG 1.1//EN" "http://www.w3.org/Graphics/SVG/1.1/DTD/svg11.dtd">
<svg style="width:308px;height:308px;" version="1.1" id="图形" xmlns="http://www.w3.org/2000/svg" xmlns:xlink="http://www.w3.org/1999/xlink" x="0px" y="0px" width="1024px" height="1024px" viewBox="0 0 1024 1024" enable-background="new 0 0 1024 1024" xml:space="preserve">
  <path class="svgpath" data-index="path_0" fill="#f00" d="M512 1024c282.784 0 512-229.216 512-512s-229.216-512-512-512-512 229.216-512 512 229.216 512 512 512zM512 96c229.76 0 416 186.24 416 416s-186.24 416-416 416-416-186.24-416-416 186.24-416 416-416zM704.096 780.736c-39.168-65.152-110.528-108.736-192.096-108.736s-152.928 43.584-192.096 108.736l-82.336-49.408c55.968-93.056 157.92-155.36 274.432-155.36s218.464 62.272 274.432 155.36l-82.336 49.408zM767.04 280.256c4.288 17.152-6.144 34.528-23.296 38.816-17.632 4.448-38.528 12.128-56.928 21.344 10.656 11.424 17.184 26.752 17.184 43.616 0 35.36-28.64 64-64 64s-64-28.64-64-64c0-1.184 0.032-2.336 0.096-3.488 2.048-47.456 45.216-78.944 81.6-97.152 34.752-17.376 69.088-26.048 70.56-26.432 17.152-4.288 34.528 6.144 38.816 23.296zM256.96 280.256c4.288-17.152 21.664-27.584 38.816-23.296 1.44 0.352 35.808 9.056 70.56 26.432 36.384 18.208 79.552 49.696 81.6 97.152 0.064 1.152 0.096 2.304 0.096 3.488 0 35.36-28.64 64-64 64s-64-28.64-64-64c0-16.864 6.528-32.16 17.184-43.616-18.4-9.216-39.296-16.896-56.928-21.344-17.152-4.288-27.552-21.664-23.296-38.816z" />

</svg>
