<?xml version="1.0" encoding="utf-8"?>
<!DOCTYPE svg PUBLIC "-//W3C//DTD SVG 1.1//EN" "http://www.w3.org/Graphics/SVG/1.1/DTD/svg11.dtd">
<svg xmlns="http://www.w3.org/2000/svg" x="0px" y="0px" width="1024px" height="1024px" viewBox="0 0 1024 1024" enable-background="new 0 0 1024 1024" xml:space="preserve">
<path class="svgpath" data-index="path_1" fill="#92ff41" d="M494.92802 698.024441C494.547454 698.430336 494.159021 698.831531 493.76272 699.227832 473.808561 719.18199 441.35817 719.231016 421.373615 699.246461L240.24709 518.119937C220.304856 498.177702 220.270876 465.725676 240.26572 445.730831 260.219877 425.776673 292.670269 425.727647 312.654824 445.712202L457.539807 590.597186 715.73926 332.397733C735.716006 312.420987 768.160068 312.476343 788.114225 332.430502 808.109069 352.425345 808.085191 384.867271 788.146995 404.805467L494.92802 698.024441Z" />
<path class="svgpath" data-index="path_0" fill="#ecf0f1" d="M102.4 102.400653 102.4 102.400653 102.4 921.599347C102.4 921.612242 102.387756 921.6 102.400653 921.6L921.599347 921.6C921.612242 921.6 921.6 921.612244 921.6 921.599347L921.6 102.400653C921.6 102.387758 921.612244 102.4 921.599347 102.4L102.400653 102.4C102.387758 102.4 102.4 102.387756 102.4 102.400653L102.4 102.400653ZM0 102.400653C0 45.846334 45.821265 0 102.400653 0L921.599347 0C978.153666 0 1024 45.821265 1024 102.400653L1024 921.599347C1024 978.153666 978.178735 1024 921.599347 1024L102.400653 1024C45.846334 1024 0 978.178735 0 921.599347L0 102.400653 0 102.400653Z" />
</svg>

