<?xml version="1.0" encoding="utf-8"?>
<!DOCTYPE svg PUBLIC "-//W3C//DTD SVG 1.1//EN" "http://www.w3.org/Graphics/SVG/1.1/DTD/svg11.dtd">
<svg style="width:308px;height:308px;" version="1.1" id="图形" xmlns="http://www.w3.org/2000/svg" xmlns:xlink="http://www.w3.org/1999/xlink" x="0px" y="0px" width="1024px" height="1024px" viewBox="0 0 1024 1024" enable-background="new 0 0 1024 1024" xml:space="preserve">
  <path class="svgpath" data-index="path_0" fill="#ea8010" d="M326.725501 972.402215" />
<path class="svgpath" data-index="path_1" fill="#ea8010" d="M512 1023.999925C229.683386 1023.999925 3.8e-05 794.324081 3.8e-05 511.999962 3.8e-05 229.683348 229.683386 0 512 0s511.992458 229.683348 511.992458 511.999962C1023.999962 794.324081 794.324118 1023.999925 512 1023.999925zM512 45.02418C254.506717 45.02418 45.024217 254.514183 45.024217 511.999962s209.4825 466.975783 466.975783 466.975783c257.485779 0 466.968279-209.4825 466.968279-466.975783S769.493283 45.02418 512 45.02418z" />
<path class="svgpath" data-index="path_2" fill="#ea8010" d="M430.138537 677.771488c0 8.607122 6.453466 15.570862 14.437754 15.570862 7.961776 0 14.422746-6.96374 14.422746-15.570862l0.157585 0c2.258713-31.704526 24.943396-56.685442 52.955939-56.685442 27.975024 0 50.682218 24.980916 52.963443 56.685442l0.052528 0c0 8.607122 6.46097 15.570862 14.422746 15.570862 7.961776 0 14.422746-6.96374 14.422746-15.570862-0.450242-47.447981-36.1244-85.756054-80.14304-85.756054l-3.44435 0c-43.733486 0-79.145004 37.827815-80.067999 84.81805C430.288618 677.163661 430.138537 677.448814 430.138537 677.771488L430.138537 677.771488zM430.138537 677.771488" />
<path class="svgpath" data-index="path_3" fill="#ea8010" d="M357.927257 368.56043c-1.493302-0.667859-2.994108-1.215653-4.502418-1.815975-12.936948-4.262289-27.719887-1.410758-38.007912 8.877267-7.654111 7.654111-11.188509 17.784551-10.745771 27.802431-0.457746-10.025384 3.084156-20.163328 10.745771-27.824943 10.288025-10.288025 25.06346-13.139556 38.007912-8.877267-51.004891-20.808675-111.607437-10.730763-153.014674 30.66897-11.038428 11.038428-11.030924 28.898019 0 39.936447 11.030924 11.030924 28.905523 11.038428 39.936447 0 18.152248-18.152248 42.405273-25.933927 66.103-24.012896 0 0.007504 0 0.015008 0 0.015008 2.416298 0.210113 4.810083 0.397714 7.181357 0.795427-1.845991 1.073076-3.706991 2.326249-5.552982 3.451854l-0.007504-0.022512c-16.733987 10.235497-33.430453 23.097404-49.12138 38.788331-8.427026 8.427026-16.036112 17.161716-22.962332 26.023976l0.285153 0.285153c-5.590502 6.626058-5.035204 16.929092 1.778455 23.742751 6.813659 6.813659 17.109188 7.391469 23.750255 1.785959l0.42773 0.42773c6.656075-8.869763 14.017528-17.747031 22.632154-26.361657 19.818143-19.818143 41.024532-34.398473 60.174816-42.998092l0.382706-0.382706 0.030016-0.030016 0.007504-0.007504c8.254433-0.817939 16.313761-4.224769 22.639658-10.550666 6.325897-6.325897 9.747735-14.400233 10.565674-22.654666l0.015008-0.015008-0.015008-0.015008c1.050564-10.715755-2.356265-21.791703-10.55817-29.993608C365.06359 372.58259 361.589224 370.331381 357.927257 368.56043z" />
<path class="svgpath" data-index="path_4" fill="#ea8010" d="M666.072743 368.56043c1.493302-0.667859 2.994108-1.215653 4.502418-1.815975 12.936948-4.262289 27.719887-1.410758 38.007912 8.877267 7.654111 7.654111 11.188509 17.784551 10.745771 27.802431 0.457746-10.025384-3.084156-20.163328-10.745771-27.824943-10.288025-10.288025-25.06346-13.139556-38.007912-8.877267 51.004891-20.808675 111.607437-10.730763 153.014674 30.66897 11.038428 11.038428 11.030924 28.898019 0 39.936447-11.030924 11.030924-28.905523 11.038428-39.936447 0-18.152248-18.152248-42.405273-25.933927-66.103-24.012896 0 0 0 0.015008-0.007504 0.022512-2.408794 0.202609-4.802579 0.39021-7.173853 0.787923 1.845991 1.073076 3.706991 2.326249 5.552982 3.451854 0-0.007504 0.007504-0.015008 0.007504-0.022512 16.733987 10.235497 33.430453 23.097404 49.12138 38.788331 8.427026 8.427026 16.036112 17.161716 22.962332 26.023976l-0.285153 0.285153c5.590502 6.626058 5.035204 16.929092-1.778455 23.742751-6.813659 6.813659-17.109188 7.391469-23.750255 1.785959l-0.42773 0.42773c-6.656075-8.869763-14.017528-17.747031-22.632154-26.361657-19.818143-19.818143-41.024532-34.398473-60.174816-42.998092l-0.382706-0.382706-0.030016-0.030016-0.007504-0.007504c-8.254433-0.817939-16.313761-4.224769-22.639658-10.550666-6.325897-6.325897-9.747735-14.400233-10.565674-22.654666l-0.015008-0.015008 0.015008-0.015008c-1.050564-10.715755 2.356265-21.791703 10.55817-29.993608C658.93641 372.58259 662.410776 370.331381 666.072743 368.56043z" />
<path class="svgpath" data-index="path_5" fill="#ea8010" d="M256.697894 608.922013c-3.024124 3.024124-7.278909 4.787571-11.556206 4.787571-4.277297 0-8.532082-1.763447-11.556206-4.787571-3.024124-3.024124-4.787571-7.278909-4.787571-11.556206 0-4.277297 1.763447-8.532082 4.787571-11.556206 3.024124-3.024124 7.278909-4.787571 11.556206-4.787571 1.635879 0 3.249245 0.330177 4.810083 0.817939-5.335365-5.230309-12.741843-8.284449-20.208353-8.284449-7.564062 0-15.075596 3.114172-20.418465 8.457042-5.342869 5.342869-8.457042 12.854403-8.457042 20.418465 0 7.556558 3.114172 15.075596 8.457042 20.418465 5.342869 5.342869 12.854403 8.457042 20.418465 8.457042 7.556558 0 15.075596-3.114172 20.418465-8.457042 4.224769-4.224769 6.978748-9.807767 7.976784-15.690927C257.680921 607.766393 257.23068 608.381723 256.697894 608.922013z" />

</svg>
