<?xml version="1.0" encoding="utf-8"?>
<!DOCTYPE svg PUBLIC "-//W3C//DTD SVG 1.1//EN" "http://www.w3.org/Graphics/SVG/1.1/DTD/svg11.dtd">
<svg style="width:308px;height:308px;" version="1.1" id="图形" xmlns="http://www.w3.org/2000/svg" xmlns:xlink="http://www.w3.org/1999/xlink" x="0px" y="0px" width="1025px" height="1024px" viewBox="0 0 1025 1024" enable-background="new 0 0 1025 1024" xml:space="preserve">
  <path class="svgpath" data-index="path_0" fill="#11cd6e" d="M32 523.508c0-179.132 98.374-335.344 244.098-417.662 69.695-39.359 150.236-61.847 236.01-61.847 265.121 0 480.084 214.674 480.084 479.484 0.023 264.881-214.914 479.556-480.084 479.556C246.939 1003.062 32 788.388 32 523.508L32 523.508zM512.108 103.975c-232.027 0-420.11 187.843-420.11 419.558 0.023 231.714 188.083 419.582 420.11 419.582 231.978 0 420.062-187.843 420.062-419.582C932.17 291.819 744.11 103.975 512.108 103.975L512.108 103.975z" />
<path class="svgpath" data-index="path_1" fill="#11cd6e" d="M354.993 392.501c28.82 0 52.2-23.82 52.2-53.18 0-29.42-23.36-53.22-52.2-53.22-28.86 0-52.2 23.8-52.2 53.22C302.793 368.681 326.153 392.501 354.993 392.501L354.993 392.501zM668.213 392.501c28.82 0 52.24-23.82 52.24-53.18 0-29.42-23.42-53.22-52.24-53.22s-52.2 23.8-52.2 53.22C616.013 368.681 639.393 392.501 668.213 392.501L668.213 392.501zM741.333 477.681c-11.56 0-20.88 9.5-20.88 21.28 0 117.58-93.5 212.94-208.82 212.94-115.3 0-208.82-95.36-208.82-212.94 0-11.78-9.36-21.28-20.88-21.28-11.52 0-20.88 9.5-20.88 21.28 0 141.06 112.2 255.44 250.58 255.44s250.54-114.4 250.54-255.44C762.133 487.181 752.813 477.681 741.333 477.681L741.333 477.681 741.333 477.681z" />

</svg>
